<mxfile host="app.diagrams.net" modified="2020-04-11T02:27:26.625Z" agent="5.0 (Windows NT 10.0; Win64; x64) AppleWebKit/537.36 (KHTML, like Gecko) Chrome/80.0.3987.163 Safari/537.36" etag="TRI7OqFu4339vSIQgBqH" version="12.9.10" type="github">
  <diagram id="C8_p5FGZm3GTterVoE7J" name="Page-1">
    <mxGraphModel dx="1422" dy="762" grid="1" gridSize="10" guides="1" tooltips="1" connect="1" arrows="1" fold="1" page="1" pageScale="1" pageWidth="850" pageHeight="1100" math="0" shadow="0">
      <root>
        <mxCell id="0" />
        <mxCell id="1" parent="0" />
        <mxCell id="S_qid50sMCVU760u-bBD-1" value="Class C Object" style="rounded=1;whiteSpace=wrap;html=1;" vertex="1" parent="1">
          <mxGeometry x="130" y="160" width="100" height="50" as="geometry" />
        </mxCell>
        <mxCell id="S_qid50sMCVU760u-bBD-2" value="int[]" style="rounded=1;whiteSpace=wrap;html=1;" vertex="1" parent="1">
          <mxGeometry x="90" y="240" width="80" height="30" as="geometry" />
        </mxCell>
        <mxCell id="S_qid50sMCVU760u-bBD-3" value="" style="endArrow=none;html=1;exitX=0.5;exitY=0;exitDx=0;exitDy=0;entryX=0.25;entryY=1;entryDx=0;entryDy=0;" edge="1" parent="1" source="S_qid50sMCVU760u-bBD-2" target="S_qid50sMCVU760u-bBD-1">
          <mxGeometry width="50" height="50" relative="1" as="geometry">
            <mxPoint x="400" y="420" as="sourcePoint" />
            <mxPoint x="450" y="370" as="targetPoint" />
          </mxGeometry>
        </mxCell>
        <mxCell id="S_qid50sMCVU760u-bBD-4" value="String" style="rounded=1;whiteSpace=wrap;html=1;" vertex="1" parent="1">
          <mxGeometry x="220" y="240" width="80" height="30" as="geometry" />
        </mxCell>
        <mxCell id="S_qid50sMCVU760u-bBD-5" value="" style="endArrow=none;html=1;exitX=0.68;exitY=1.04;exitDx=0;exitDy=0;exitPerimeter=0;" edge="1" parent="1" source="S_qid50sMCVU760u-bBD-1" target="S_qid50sMCVU760u-bBD-4">
          <mxGeometry width="50" height="50" relative="1" as="geometry">
            <mxPoint x="400" y="420" as="sourcePoint" />
            <mxPoint x="450" y="370" as="targetPoint" />
          </mxGeometry>
        </mxCell>
        <mxCell id="S_qid50sMCVU760u-bBD-6" value="t" style="rounded=1;whiteSpace=wrap;html=1;" vertex="1" parent="1">
          <mxGeometry x="190" y="300" width="30" height="30" as="geometry" />
        </mxCell>
        <mxCell id="S_qid50sMCVU760u-bBD-7" value="" style="endArrow=none;html=1;entryX=0.5;entryY=0;entryDx=0;entryDy=0;exitX=0.25;exitY=1;exitDx=0;exitDy=0;" edge="1" parent="1" source="S_qid50sMCVU760u-bBD-4" target="S_qid50sMCVU760u-bBD-6">
          <mxGeometry width="50" height="50" relative="1" as="geometry">
            <mxPoint x="205" y="280" as="sourcePoint" />
            <mxPoint x="450" y="370" as="targetPoint" />
          </mxGeometry>
        </mxCell>
        <mxCell id="S_qid50sMCVU760u-bBD-8" value="2" style="rounded=1;whiteSpace=wrap;html=1;" vertex="1" parent="1">
          <mxGeometry x="60" y="300" width="30" height="30" as="geometry" />
        </mxCell>
        <mxCell id="S_qid50sMCVU760u-bBD-9" value="3" style="rounded=1;whiteSpace=wrap;html=1;" vertex="1" parent="1">
          <mxGeometry x="100" y="300" width="30" height="30" as="geometry" />
        </mxCell>
        <mxCell id="S_qid50sMCVU760u-bBD-10" value="4" style="rounded=1;whiteSpace=wrap;html=1;" vertex="1" parent="1">
          <mxGeometry x="140" y="300" width="30" height="30" as="geometry" />
        </mxCell>
        <mxCell id="S_qid50sMCVU760u-bBD-13" value="" style="endArrow=none;html=1;exitX=0.175;exitY=1;exitDx=0;exitDy=0;exitPerimeter=0;entryX=0.5;entryY=0;entryDx=0;entryDy=0;" edge="1" parent="1" source="S_qid50sMCVU760u-bBD-2" target="S_qid50sMCVU760u-bBD-8">
          <mxGeometry width="50" height="50" relative="1" as="geometry">
            <mxPoint x="400" y="420" as="sourcePoint" />
            <mxPoint x="450" y="370" as="targetPoint" />
          </mxGeometry>
        </mxCell>
        <mxCell id="S_qid50sMCVU760u-bBD-14" value="" style="endArrow=none;html=1;exitX=0.5;exitY=1;exitDx=0;exitDy=0;entryX=0.5;entryY=0;entryDx=0;entryDy=0;" edge="1" parent="1" source="S_qid50sMCVU760u-bBD-2" target="S_qid50sMCVU760u-bBD-9">
          <mxGeometry width="50" height="50" relative="1" as="geometry">
            <mxPoint x="114" y="280" as="sourcePoint" />
            <mxPoint x="85" y="310" as="targetPoint" />
          </mxGeometry>
        </mxCell>
        <mxCell id="S_qid50sMCVU760u-bBD-15" value="" style="endArrow=none;html=1;exitX=0.75;exitY=1;exitDx=0;exitDy=0;entryX=0.5;entryY=0;entryDx=0;entryDy=0;" edge="1" parent="1" source="S_qid50sMCVU760u-bBD-2" target="S_qid50sMCVU760u-bBD-10">
          <mxGeometry width="50" height="50" relative="1" as="geometry">
            <mxPoint x="124" y="290" as="sourcePoint" />
            <mxPoint x="95" y="320" as="targetPoint" />
          </mxGeometry>
        </mxCell>
        <mxCell id="S_qid50sMCVU760u-bBD-18" value="e" style="rounded=1;whiteSpace=wrap;html=1;" vertex="1" parent="1">
          <mxGeometry x="230" y="300" width="30" height="30" as="geometry" />
        </mxCell>
        <mxCell id="S_qid50sMCVU760u-bBD-19" value="s" style="rounded=1;whiteSpace=wrap;html=1;" vertex="1" parent="1">
          <mxGeometry x="270" y="300" width="30" height="30" as="geometry" />
        </mxCell>
        <mxCell id="S_qid50sMCVU760u-bBD-20" value="t" style="rounded=1;whiteSpace=wrap;html=1;" vertex="1" parent="1">
          <mxGeometry x="310" y="300" width="30" height="30" as="geometry" />
        </mxCell>
        <mxCell id="S_qid50sMCVU760u-bBD-22" value="" style="endArrow=none;html=1;exitX=0.5;exitY=1;exitDx=0;exitDy=0;entryX=0.5;entryY=0;entryDx=0;entryDy=0;" edge="1" parent="1" source="S_qid50sMCVU760u-bBD-4" target="S_qid50sMCVU760u-bBD-18">
          <mxGeometry width="50" height="50" relative="1" as="geometry">
            <mxPoint x="400" y="420" as="sourcePoint" />
            <mxPoint x="450" y="370" as="targetPoint" />
          </mxGeometry>
        </mxCell>
        <mxCell id="S_qid50sMCVU760u-bBD-23" value="" style="endArrow=none;html=1;exitX=0.5;exitY=0;exitDx=0;exitDy=0;entryX=0.75;entryY=1;entryDx=0;entryDy=0;" edge="1" parent="1" source="S_qid50sMCVU760u-bBD-19" target="S_qid50sMCVU760u-bBD-4">
          <mxGeometry width="50" height="50" relative="1" as="geometry">
            <mxPoint x="400" y="420" as="sourcePoint" />
            <mxPoint x="450" y="370" as="targetPoint" />
          </mxGeometry>
        </mxCell>
        <mxCell id="S_qid50sMCVU760u-bBD-24" value="" style="endArrow=none;html=1;exitX=0.5;exitY=0;exitDx=0;exitDy=0;entryX=1;entryY=1;entryDx=0;entryDy=0;" edge="1" parent="1" source="S_qid50sMCVU760u-bBD-20" target="S_qid50sMCVU760u-bBD-4">
          <mxGeometry width="50" height="50" relative="1" as="geometry">
            <mxPoint x="400" y="420" as="sourcePoint" />
            <mxPoint x="450" y="370" as="targetPoint" />
          </mxGeometry>
        </mxCell>
        <mxCell id="S_qid50sMCVU760u-bBD-25" value="Class C Object" style="rounded=1;whiteSpace=wrap;html=1;" vertex="1" parent="1">
          <mxGeometry x="480" y="160" width="100" height="50" as="geometry" />
        </mxCell>
        <mxCell id="S_qid50sMCVU760u-bBD-26" value="int[]" style="rounded=1;whiteSpace=wrap;html=1;" vertex="1" parent="1">
          <mxGeometry x="440" y="240" width="80" height="30" as="geometry" />
        </mxCell>
        <mxCell id="S_qid50sMCVU760u-bBD-27" value="" style="endArrow=none;html=1;exitX=0.5;exitY=0;exitDx=0;exitDy=0;entryX=0.25;entryY=1;entryDx=0;entryDy=0;" edge="1" parent="1" source="S_qid50sMCVU760u-bBD-26" target="S_qid50sMCVU760u-bBD-25">
          <mxGeometry width="50" height="50" relative="1" as="geometry">
            <mxPoint x="750" y="420" as="sourcePoint" />
            <mxPoint x="800" y="370" as="targetPoint" />
          </mxGeometry>
        </mxCell>
        <mxCell id="S_qid50sMCVU760u-bBD-28" value="String" style="rounded=1;whiteSpace=wrap;html=1;" vertex="1" parent="1">
          <mxGeometry x="570" y="240" width="80" height="30" as="geometry" />
        </mxCell>
        <mxCell id="S_qid50sMCVU760u-bBD-29" value="" style="endArrow=none;html=1;exitX=0.68;exitY=1.04;exitDx=0;exitDy=0;exitPerimeter=0;" edge="1" parent="1" source="S_qid50sMCVU760u-bBD-25" target="S_qid50sMCVU760u-bBD-28">
          <mxGeometry width="50" height="50" relative="1" as="geometry">
            <mxPoint x="750" y="420" as="sourcePoint" />
            <mxPoint x="800" y="370" as="targetPoint" />
          </mxGeometry>
        </mxCell>
        <mxCell id="S_qid50sMCVU760u-bBD-30" value="t" style="rounded=1;whiteSpace=wrap;html=1;" vertex="1" parent="1">
          <mxGeometry x="540" y="300" width="30" height="30" as="geometry" />
        </mxCell>
        <mxCell id="S_qid50sMCVU760u-bBD-31" value="" style="endArrow=none;html=1;entryX=0.5;entryY=0;entryDx=0;entryDy=0;exitX=0.25;exitY=1;exitDx=0;exitDy=0;" edge="1" parent="1" source="S_qid50sMCVU760u-bBD-28" target="S_qid50sMCVU760u-bBD-30">
          <mxGeometry width="50" height="50" relative="1" as="geometry">
            <mxPoint x="555" y="280" as="sourcePoint" />
            <mxPoint x="800" y="370" as="targetPoint" />
          </mxGeometry>
        </mxCell>
        <mxCell id="S_qid50sMCVU760u-bBD-32" value="1" style="rounded=1;whiteSpace=wrap;html=1;" vertex="1" parent="1">
          <mxGeometry x="410" y="300" width="30" height="30" as="geometry" />
        </mxCell>
        <mxCell id="S_qid50sMCVU760u-bBD-33" value="2" style="rounded=1;whiteSpace=wrap;html=1;" vertex="1" parent="1">
          <mxGeometry x="450" y="300" width="30" height="30" as="geometry" />
        </mxCell>
        <mxCell id="S_qid50sMCVU760u-bBD-34" value="3" style="rounded=1;whiteSpace=wrap;html=1;" vertex="1" parent="1">
          <mxGeometry x="490" y="300" width="30" height="30" as="geometry" />
        </mxCell>
        <mxCell id="S_qid50sMCVU760u-bBD-35" value="" style="endArrow=none;html=1;exitX=0.175;exitY=1;exitDx=0;exitDy=0;exitPerimeter=0;entryX=0.5;entryY=0;entryDx=0;entryDy=0;" edge="1" parent="1" source="S_qid50sMCVU760u-bBD-26" target="S_qid50sMCVU760u-bBD-32">
          <mxGeometry width="50" height="50" relative="1" as="geometry">
            <mxPoint x="750" y="420" as="sourcePoint" />
            <mxPoint x="800" y="370" as="targetPoint" />
          </mxGeometry>
        </mxCell>
        <mxCell id="S_qid50sMCVU760u-bBD-36" value="" style="endArrow=none;html=1;exitX=0.5;exitY=1;exitDx=0;exitDy=0;entryX=0.5;entryY=0;entryDx=0;entryDy=0;" edge="1" parent="1" source="S_qid50sMCVU760u-bBD-26" target="S_qid50sMCVU760u-bBD-33">
          <mxGeometry width="50" height="50" relative="1" as="geometry">
            <mxPoint x="464" y="280" as="sourcePoint" />
            <mxPoint x="435" y="310" as="targetPoint" />
          </mxGeometry>
        </mxCell>
        <mxCell id="S_qid50sMCVU760u-bBD-37" value="" style="endArrow=none;html=1;exitX=0.75;exitY=1;exitDx=0;exitDy=0;entryX=0.5;entryY=0;entryDx=0;entryDy=0;" edge="1" parent="1" source="S_qid50sMCVU760u-bBD-26" target="S_qid50sMCVU760u-bBD-34">
          <mxGeometry width="50" height="50" relative="1" as="geometry">
            <mxPoint x="474" y="290" as="sourcePoint" />
            <mxPoint x="445" y="320" as="targetPoint" />
          </mxGeometry>
        </mxCell>
        <mxCell id="S_qid50sMCVU760u-bBD-38" value="e" style="rounded=1;whiteSpace=wrap;html=1;" vertex="1" parent="1">
          <mxGeometry x="580" y="300" width="30" height="30" as="geometry" />
        </mxCell>
        <mxCell id="S_qid50sMCVU760u-bBD-39" value="x" style="rounded=1;whiteSpace=wrap;html=1;" vertex="1" parent="1">
          <mxGeometry x="620" y="300" width="30" height="30" as="geometry" />
        </mxCell>
        <mxCell id="S_qid50sMCVU760u-bBD-40" value="t" style="rounded=1;whiteSpace=wrap;html=1;" vertex="1" parent="1">
          <mxGeometry x="660" y="300" width="30" height="30" as="geometry" />
        </mxCell>
        <mxCell id="S_qid50sMCVU760u-bBD-41" value="" style="endArrow=none;html=1;exitX=0.5;exitY=1;exitDx=0;exitDy=0;entryX=0.5;entryY=0;entryDx=0;entryDy=0;" edge="1" parent="1" source="S_qid50sMCVU760u-bBD-28" target="S_qid50sMCVU760u-bBD-38">
          <mxGeometry width="50" height="50" relative="1" as="geometry">
            <mxPoint x="750" y="420" as="sourcePoint" />
            <mxPoint x="800" y="370" as="targetPoint" />
          </mxGeometry>
        </mxCell>
        <mxCell id="S_qid50sMCVU760u-bBD-42" value="" style="endArrow=none;html=1;exitX=0.5;exitY=0;exitDx=0;exitDy=0;entryX=0.75;entryY=1;entryDx=0;entryDy=0;" edge="1" parent="1" source="S_qid50sMCVU760u-bBD-39" target="S_qid50sMCVU760u-bBD-28">
          <mxGeometry width="50" height="50" relative="1" as="geometry">
            <mxPoint x="750" y="420" as="sourcePoint" />
            <mxPoint x="800" y="370" as="targetPoint" />
          </mxGeometry>
        </mxCell>
        <mxCell id="S_qid50sMCVU760u-bBD-43" value="" style="endArrow=none;html=1;exitX=0.5;exitY=0;exitDx=0;exitDy=0;entryX=1;entryY=1;entryDx=0;entryDy=0;" edge="1" parent="1" source="S_qid50sMCVU760u-bBD-40" target="S_qid50sMCVU760u-bBD-28">
          <mxGeometry width="50" height="50" relative="1" as="geometry">
            <mxPoint x="750" y="420" as="sourcePoint" />
            <mxPoint x="800" y="370" as="targetPoint" />
          </mxGeometry>
        </mxCell>
      </root>
    </mxGraphModel>
  </diagram>
</mxfile>
